<svg width="176" height="22" viewBox="0 0 176 22" fill="none" xmlns="http://www.w3.org/2000/svg">
<g clip-path="url(#clip0_453_3142)">
<path d="M46.2059 21.7172H42.1875C42.1875 21.5442 42.1875 12.7714 42.1858 12.5967C42.1724 10.0572 41.362 9.40358 38.75 9.74618C40.771 8.91463 42.8019 8.77826 44.7944 9.80273C45.712 10.2767 46.0904 11.1415 46.1775 12.1011C46.2093 12.4387 46.1975 21.3796 46.2059 21.7172Z" fill="#F5F0D0"/>
<path d="M54.1551 21.7172H50.1367C50.1367 21.5442 50.1367 12.7714 50.135 12.5967C50.1216 10.0572 49.3112 9.40358 46.6992 9.74618C48.7202 8.91463 50.7512 8.77826 52.7437 9.80273C53.6612 10.2767 54.0396 11.1415 54.1267 12.1011C54.1585 12.4387 54.1468 21.3796 54.1551 21.7172Z" fill="#F5F0D0"/>
<path d="M33.1172 21.7173C33.1172 17.4331 33.1172 13.5448 33.1172 9.25899C34.4416 9.25899 35.7158 8.54053 37.0854 8.54053C37.0854 12.8064 37.0854 17.4099 37.0854 21.7173C35.7543 21.7173 34.4851 21.7173 33.1172 21.7173Z" fill="#F5F0D0"/>
<path d="M73.2207 21.7173C73.2207 17.4331 73.2207 13.5448 73.2207 9.25899C74.5451 9.25899 75.8193 8.54053 77.1889 8.54053C77.1889 12.8064 77.1889 17.4099 77.1889 21.7173C75.8578 21.7173 74.5887 21.7173 73.2207 21.7173Z" fill="#F5F0D0"/>
<path d="M85.7411 21.7172H81.7226C81.7226 21.5442 81.7226 12.7714 81.7209 12.5967C81.7075 10.0572 80.8972 9.40358 78.2852 9.74618C80.3061 8.91463 82.3371 8.77826 84.3296 9.80273C85.2471 10.2767 85.6255 11.1415 85.7126 12.1011C85.7444 12.4387 85.7327 21.3796 85.7411 21.7172Z" fill="#F5F0D0"/>
<path d="M94.5492 8.79412V18.0576C94.5626 20.5972 95.3747 21.2508 97.985 20.9082C95.9641 21.7397 93.9331 21.8761 91.9406 20.8516C91.023 20.3776 90.6463 19.5128 90.5592 18.5532C90.5358 18.3071 90.5358 13.4541 90.5324 10.7333C90.5324 10.7333 90.5709 10.3807 90.5308 9.97659C90.4973 9.62401 90.4052 9.23318 90.1758 9.00534C89.6835 8.51638 88.252 8.50474 88.252 8.50474L88.3106 8.49975L90.5291 8.32346V4.91078C91.8937 4.91078 93.1361 4.17236 94.5492 4.17236V8.45319H98.0386V8.79412H94.5492Z" fill="#F5F0D0"/>
<path d="M94.5492 8.79412V18.0576C94.5626 20.5972 95.3747 21.2508 97.985 20.9082C95.9641 21.7397 93.9331 21.8761 91.9406 20.8516C91.023 20.3776 90.6463 19.5128 90.5592 18.5532C90.5358 18.3071 90.5358 13.4541 90.5324 10.7333C90.5324 10.7333 90.5709 10.3807 90.5308 9.97659C90.4973 9.62401 90.4052 9.23318 90.1758 9.00534C89.6835 8.51638 88.252 8.50474 88.252 8.50474L88.3106 8.49975L90.5291 8.32346V4.91078C91.8937 4.91078 93.1361 4.17236 94.5492 4.17236V8.45319H98.0386V8.79412H94.5492Z" fill="#F5F0D0"/>
<path d="M94.5492 8.79412V18.0576C94.5626 20.5972 95.3747 21.2508 97.985 20.9082C95.9641 21.7397 93.9331 21.8761 91.9406 20.8516C91.023 20.3776 90.6463 19.5128 90.5592 18.5532C90.5358 18.3071 90.5358 13.4541 90.5324 10.7333C90.5324 10.7333 90.5709 10.3807 90.5308 9.97659C90.4973 9.62401 90.4052 9.23318 90.1758 9.00534C89.6835 8.51638 88.252 8.50474 88.252 8.50474L88.3106 8.49975L90.5291 8.32346V4.91078C91.8937 4.91078 93.1361 4.17236 94.5492 4.17236V8.45319H98.0386V8.79412H94.5492Z" fill="#F5F0D0"/>
<path d="M107.228 8.1499C102.915 8.1499 99.7051 11.2117 99.7051 14.9886C99.7051 18.7655 102.917 21.8273 107.228 21.8273C111.539 21.8273 114.751 18.7655 114.751 14.9886C114.753 11.2117 111.541 8.1499 107.228 8.1499ZM107.228 21.5196C105.189 21.5196 103.533 19.6253 103.533 14.9869C103.533 10.3485 105.187 8.45425 107.228 8.45425C109.269 8.45425 110.923 10.3485 110.923 14.9869C110.923 19.6253 109.267 21.5196 107.228 21.5196Z" fill="#F5F0D0"/>
<path d="M23.7952 8.40088C26.0824 8.40088 27.7869 9.09273 28.917 10.217C30.0489 11.3412 30.6081 12.9578 30.6081 15.0816H20.5503C20.5503 16.9343 20.9354 18.3795 21.6939 19.4289C22.4523 20.4783 23.5959 20.9972 25.1363 20.9972C27.2879 20.9972 28.8903 20.3553 29.9233 19.083L30.0472 19.206C28.9154 20.7993 26.9513 21.5893 24.1669 21.576C21.8178 21.576 19.9659 21.0454 18.6097 19.996C17.2417 18.9466 16.5586 17.3284 16.5586 15.1547C16.5586 12.9811 17.1932 11.3396 18.4607 10.2153C19.7298 9.09273 21.508 8.40088 23.7952 8.40088ZM20.5519 14.7489H26.9179C26.9179 11.8219 26.4809 10.3384 25.8731 9.56339C25.3289 8.86821 24.48 8.77674 23.822 8.76177C21.3874 8.69857 20.5637 10.7592 20.5519 14.7489Z" fill="#F5F0D0"/>
<path d="M63.899 8.54248C66.1862 8.54248 67.8906 9.23433 69.0208 10.3586C70.151 11.4828 70.7119 13.0994 70.7119 15.2232H60.6557C60.6557 17.0759 61.0408 18.5194 61.7993 19.5705C62.5578 20.6199 63.7014 21.1388 65.2418 21.1388C67.3934 21.1388 68.9957 20.4969 70.0288 19.2246L70.1527 19.3477C69.0208 20.9409 67.0568 21.7309 64.2724 21.7176C61.9232 21.7176 60.0714 21.187 58.7152 20.1376C57.3472 19.0882 56.6641 17.47 56.6641 15.2963C56.6641 13.1227 57.2986 11.4812 58.5661 10.3569C59.8336 9.23267 61.6118 8.54248 63.899 8.54248ZM60.6557 14.8905H67.02C67.02 11.9635 66.583 10.48 65.9752 9.70499C65.431 9.00981 64.5821 8.91834 63.9241 8.90337C61.4912 8.84018 60.6675 10.9008 60.6557 14.8905Z" fill="#F5F0D0"/>
<path d="M10.3559 14.7489C10.3559 14.4147 10.3509 14.1003 10.3392 13.8026C10.2538 11.4926 9.85026 10.2502 9.31112 9.56339C8.76528 8.86655 7.91805 8.77674 7.2617 8.76177C7.22654 8.76011 7.19138 8.76011 7.15622 8.76011C7.11938 8.76011 7.08254 8.76011 7.04738 8.76177C4.77862 8.82497 4.0034 10.8806 3.99167 14.7506V15.0849C3.99167 16.9359 4.37845 18.3812 5.13526 19.4322C5.89375 20.4817 7.03734 21.0005 8.57942 21.0005C10.7293 21.0005 12.3333 20.3569 13.3664 19.0863L13.4903 19.211C12.3585 20.8026 10.3944 21.5926 7.60997 21.581C5.26084 21.581 3.409 21.0504 2.05277 20.001C0.683139 18.9483 0 17.3317 0 15.1564C0 12.9844 0.634582 11.3412 1.90207 10.217C3.13105 9.12433 4.84392 8.44246 7.03901 8.40421C7.07752 8.40254 7.11436 8.40088 7.15287 8.40088H7.15622H7.23491C9.52376 8.40088 11.2266 9.09107 12.3585 10.217C13.4903 11.3429 14.0496 12.9578 14.0496 15.0832H10.3559V14.7489Z" fill="#F5F0D0"/>
<path d="M148.865 21.0547H145.069C145.069 20.8917 145.069 12.6028 145.067 12.4398C145.054 10.0416 144.289 9.42295 141.822 9.74725C143.731 8.96227 145.652 8.83255 147.534 9.80047C148.399 10.2478 148.759 11.0644 148.84 11.9725C148.866 12.2885 148.855 20.7354 148.865 21.0547Z" fill="#F5F0D0"/>
<path d="M156.372 21.0547H152.577C152.577 20.8917 152.577 12.6028 152.575 12.4398C152.562 10.0416 151.796 9.42295 149.33 9.74725C151.239 8.96227 153.159 8.83255 155.041 9.80047C155.907 10.2478 156.267 11.0644 156.347 11.9725C156.376 12.2885 156.366 20.7354 156.372 21.0547Z" fill="#F5F0D0"/>
<path d="M136.498 21.0548C136.498 17.0084 136.498 13.333 136.498 9.28499C137.749 9.28499 138.954 8.60645 140.247 8.60645C140.247 12.6378 140.247 16.9852 140.247 21.0531C138.989 21.0548 137.791 21.0548 136.498 21.0548Z" fill="#F5F0D0"/>
<path d="M166.189 8.60791C168.349 8.60791 169.959 9.26151 171.028 10.3242C172.096 11.387 172.627 12.9137 172.627 14.921H163.126C163.126 16.6706 163.49 18.036 164.206 19.0289C164.923 20.0201 166.003 20.5107 167.46 20.5107C169.492 20.5107 171.008 19.9037 171.982 18.7029L172.099 18.8194C171.031 20.3245 169.176 21.0695 166.544 21.0579C164.325 21.0579 162.576 20.5573 161.295 19.5644C160.004 18.5732 159.357 17.0448 159.357 14.9926C159.357 12.9403 159.957 11.3886 161.154 10.3276C162.348 9.26151 164.027 8.60791 166.189 8.60791ZM163.125 14.6034H169.137C169.137 11.8377 168.724 10.4373 168.151 9.7039C167.635 9.04697 166.835 8.96049 166.214 8.94552C163.913 8.88898 163.135 10.8365 163.125 14.6034Z" fill="#F5F0D0"/>
<path d="M118.75 10.0831C118.75 10.0881 118.752 10.0914 118.752 10.0964V10.0981C118.789 10.4806 118.753 10.8132 118.753 10.8132C118.758 13.3827 118.758 17.9679 118.778 18.2007C118.861 19.1054 119.217 19.9237 120.083 20.3727C121.965 21.3407 123.884 21.2109 125.794 20.4259C123.328 20.7503 122.563 20.1316 122.549 17.7334V8.98214V8.6595V5.28174C121.213 5.28174 120.039 5.98024 118.75 5.98024V8.53809V10.0831Z" fill="#F5F0D0"/>
<path d="M128.775 21.0548C128.775 17.0084 128.775 13.333 128.775 9.28499C130.026 9.28499 131.232 8.60645 132.524 8.60645C132.524 12.6378 132.524 16.9852 132.524 21.0531C131.267 21.0548 130.068 21.0548 128.775 21.0548Z" fill="#F5F0D0"/>
<path d="M130.38 6.83665C131.231 6.83665 131.922 6.2396 131.922 5.50451C131.922 4.76942 131.232 4.17236 130.38 4.17236C129.529 4.17236 128.838 4.76942 128.838 5.50451C128.84 6.2396 129.529 6.83665 130.38 6.83665Z" fill="#F5F0D0"/>
</g>
<g clip-path="url(#clip1_453_3142)">
<path d="M171.961 0.264705C171.351 0.359246 170.713 0.658958 170.227 1.08137C169.633 1.59631 169.207 2.37476 169.092 3.15321C169.05 3.42677 169.05 3.91758 169.092 4.19114C169.207 4.96959 169.633 5.74804 170.227 6.26298C170.724 6.69344 171.355 6.98712 171.981 7.07965C172.254 7.12189 172.745 7.12189 173.019 7.07965C173.628 6.98913 174.228 6.71758 174.724 6.30321C175.35 5.78223 175.788 5.00177 175.907 4.19114C175.949 3.91758 175.949 3.42677 175.907 3.15321C175.815 2.52764 175.521 1.89603 175.091 1.39919C174.576 0.805797 173.797 0.379361 173.019 0.264705C172.755 0.224475 172.218 0.226487 171.961 0.264705ZM173.103 0.992866C174.193 1.25235 175.016 2.11528 175.205 3.19746C175.245 3.4308 175.245 3.91356 175.205 4.14689C175.008 5.27333 174.101 6.18051 172.972 6.37764C172.735 6.41787 172.264 6.41787 172.027 6.37764C170.899 6.18051 169.991 5.27333 169.794 4.14488C169.754 3.90752 169.754 3.43683 169.794 3.19948C169.985 2.10723 170.828 1.23022 171.924 0.986832C172.252 0.914418 172.781 0.91643 173.103 0.992866Z" fill="#F5F0D0"/>
<path d="M170.99 3.5895V5.40186H171.453H171.916V4.71795V4.03404H172.103C172.372 4.03404 172.483 4.07226 172.616 4.20703C172.706 4.30157 172.76 4.3941 172.988 4.85875L173.253 5.40186H173.75H174.249L174.016 4.93318C173.599 4.0964 173.571 4.0441 173.42 3.89927C173.334 3.8168 173.197 3.73232 173.149 3.73232C173.096 3.73232 173.124 3.70013 173.199 3.67398C173.307 3.63576 173.527 3.4849 173.587 3.40645C173.764 3.18117 173.83 2.82513 173.756 2.50732C173.67 2.14726 173.426 1.93806 172.976 1.8395C172.811 1.80329 172.692 1.79726 171.891 1.7872L170.99 1.77513V3.5895ZM172.551 2.49323C172.692 2.53145 172.75 2.57369 172.803 2.6803C172.835 2.74869 172.847 2.81105 172.849 2.91565C172.849 3.28174 172.696 3.39036 172.173 3.39036H171.916V2.92772V2.46507H172.183C172.342 2.46507 172.489 2.47714 172.551 2.49323Z" fill="#F5F0D0"/>
</g>
<defs>
<clipPath id="clip0_453_3142">
<rect width="172.626" height="17.6549" fill="white" transform="translate(0 4.17236)"/>
</clipPath>
<clipPath id="clip1_453_3142">
<rect width="7" height="7" fill="white" transform="translate(169 0.172363)"/>
</clipPath>
</defs>
</svg>
